<?xml version="1.0" standalone="no"?>
<!DOCTYPE svg PUBLIC "-//W3C//DTD SVG 20010904//EN"
 "http://www.w3.org/TR/2001/REC-SVG-20010904/DTD/svg10.dtd">
<svg version="1.0" xmlns="http://www.w3.org/2000/svg"
 width="512.000000pt" height="512.000000pt" viewBox="0 0 512.000000 512.000000"
 preserveAspectRatio="xMidYMid meet">
<metadata>
Created by potrace 1.11, written by Peter Selinger 2001-2013
</metadata>
<g transform="translate(0.000000,512.000000) scale(0.100000,-0.100000)"
fill="#000000" stroke="none">
<path d="M1740 4632 c-42 -2 -172 -17 -250 -28 -161 -24 -441 -109 -565 -172
-258 -130 -475 -365 -545 -589 -11 -36 -21 -46 -74 -74 -157 -82 -287 -194
-301 -259 -19 -86 33 -180 125 -229 106 -57 162 -63 590 -66 212 -2 401 -5
420 -8 19 -3 56 -9 83 -12 47 -6 48 -7 77 -68 149 -315 431 -589 633 -613 90
-11 204 55 222 129 8 32 17 33 59 8 17 -11 67 -32 111 -47 102 -35 256 -40
320 -11 48 22 78 59 79 98 1 16 3 29 5 29 19 0 299 -181 431 -279 297 -220
618 -540 858 -856 l91 -119 -78 -52 c-98 -65 -120 -83 -207 -169 -85 -85 -179
-210 -188 -250 -4 -21 0 -40 14 -63 18 -30 38 -38 80 -33 32 4 262 1 283 -3
12 -3 49 -8 82 -11 33 -4 80 -11 105 -17 25 -5 56 -12 69 -14 13 -3 79 -23
145 -45 185 -62 353 -152 544 -290 70 -50 121 -48 150 8 17 31 15 56 -14 168
-62 243 -162 466 -278 615 -44 57 -92 106 -163 167 -19 16 -22 31 -27 134 -11
239 -108 608 -232 877 -13 29 -24 54 -24 56 0 8 -132 276 -173 351 -94 173
-187 328 -288 481 -73 110 -79 130 -80 276 -1 182 51 337 146 434 16 16 56 49
87 72 65 48 88 84 88 138 0 123 -126 183 -363 171 -183 -8 -351 -53 -568 -152
l-101 -45 -76 47 c-214 130 -475 231 -717 277 -75 14 -104 18 -215 32 -49 6
-298 11 -370 6z"/>
</g>
</svg>
