<?xml version="1.0" standalone="no"?>
<!DOCTYPE svg PUBLIC "-//W3C//DTD SVG 1.1//EN" "http://www.w3.org/Graphics/SVG/1.1/DTD/svg11.dtd" >
<svg xmlns="http://www.w3.org/2000/svg">
<metadata></metadata>
<defs>
<font id="untitledregular" horiz-adv-x="2048" >
<font-face units-per-em="2048" ascent="1638" descent="-410" />
<missing-glyph horiz-adv-x="1024" />
<glyph horiz-adv-x="0" />
<glyph unicode="&#xd;" />
<glyph />
<glyph />
<glyph />
<glyph />
<glyph />
<glyph />
<glyph />
<glyph horiz-adv-x="0" />
<glyph unicode="&#x9;" horiz-adv-x="1024" />
<glyph unicode="&#xa;" />
<glyph />
<glyph />
<glyph />
<glyph />
<glyph />
<glyph />
<glyph />
<glyph />
<glyph />
<glyph />
<glyph />
<glyph />
<glyph />
<glyph />
<glyph />
<glyph />
<glyph />
<glyph horiz-adv-x="0" />
<glyph />
<glyph horiz-adv-x="1024" d="M24 1121h981l-478 -1052z" />
<glyph unicode=" "  horiz-adv-x="1024" />
<glyph unicode="&#x09;" horiz-adv-x="1024" />
<glyph unicode="&#xa0;" horiz-adv-x="1024" />
<glyph unicode="!" horiz-adv-x="999" d="M367 194q0 11 36 27q38 16 70 16h14q36 -4 87 -86q34 -57 34 -93q0 -17 -6 -29q-22 -40 -43 -45h-2q-23 0 -96 94q-79 97 -91 109q-3 3 -3 7zM439 444q0 16 5 27q16 38 17 375v64q0 276 -14 298q-8 13 -8 21t8 13q16 7 36 18q4 2 7 2q20 0 57 -47q36 -47 36 -88 q0 -8 -2 -17q-9 -47 -10.5 -381.5t-37.5 -387.5q-14 -23 -30 -23q-20 0 -40 43q-24 51 -24 83z" />
<glyph unicode="&#x22;" horiz-adv-x="1024" d="M301 1231.5q-24 216.5 15.5 241.5t79 0t15.5 -241.5t-55 -216.5t-55 216.5zM607 1231.5q-24 216.5 15.5 241.5t79 0t15.5 -241.5t-55 -216.5t-55 216.5z" />
<glyph unicode="#" horiz-adv-x="1382" d="M135 459q0 11 9 14q17 6 101.5 14t182.5 19q3 76 3 148q0 52 -2 101q-205 -26 -218 -29h-3q-12 0 -21 30q-10 32 -20 71q-3 13 -3 21q0 18 13 21q20 4 92.5 9t160.5 14q6 122 6 188q0 40 -2 60q-6 51 -20 74q-8 11 -8 18t7 10q14 7 35 16q4 1 8 1q20 0 45 -29 q33 -37 43 -68q5 -18 5 -88q0 -64 -4 -173q135 13 292 13q-1 216 -6 252t-19 50q-6 7 -6 13q0 8 7 15q15 13 35 23q6 4 13 4q14 0 30 -12q25 -19 48 -54q17 -27 17 -58v-18q-8 -41 -11 -105q-2 -40 -2 -72q0 -18 1 -33q68 2 138 10q14 2 27 2q48 0 67 -24q21 -28 21 -67 q0 -7 -1 -13q-3 -44 -22 -44q-3 0 -5 1q-24 7 -59 12q-20 3 -69 3q-40 0 -101 -2q-3 -144 -6 -252q199 4 217 8q2 1 5 1q17 0 43 -20q31 -22 43 -36q7 -10 7 -25q0 -8 -2 -17q-4 -21 -22 -21q-7 0 -17 4q-25 10 -74 10q-11 0 -23 -1q-67 -2 -174 -3q0 -235 -2.5 -321 t-21.5 -122q-8 -16 -21 -16q-16 0 -37 26q-31 37 -31 66q0 9 1 16q11 35 12 156v41q0 92 -5 146q-182 -11 -308 -27q-2 -245 -4.5 -313t-26.5 -84q-5 -4 -12 -4q-20 0 -43 44q-24 45 -24 86q0 13 2 26q9 54 11 233q-132 -18 -192 -29q-21 -5 -35 -5q-28 0 -35 16 q-9 22 -23 55q-7 14 -7 24zM524 515q158 18 312 26q2 89 2 253q-155 -6 -305 -25q-9 -174 -9 -254z" />
<glyph unicode="$" horiz-adv-x="1115" d="M93 30q0 16 20 43q42 58 66 58h5q24 -8 127 -12q30 -2 62 -2q75 0 156 8v489q-164 31 -280 174q-63 78 -63 154q0 67 47 132q100 142 308 175q1 8 1 15q0 51 -21 79q-19 25 -19 36q0 3 3 6q8 8 33 22q11 5 22 5q13 0 27 -8q24 -16 39 -37t31 -50q11 -22 11 -44 q0 -9 -2 -18l75 -11q17 -1 32 -1q42 0 70 9q5 1 10 1q36 0 84 -65q37 -52 37 -80q0 -14 -9 -22q-11 -10 -27 -10q-24 0 -57 23q-57 37 -215 44q-8 -160 -8 -326q0 -55 1 -111q306 -99 327 -296q3 -28 3 -54q0 -156 -108 -231q-127 -87 -226 -102q-9 -132 -29 -202 q-19 -65 -47 -65h-4q-31 5 -50 61q-14 39 -14 65q0 10 3 18q7 28 12 104q-180 -3 -281 -3q-87 0 -116 2q-36 4 -36 27zM323 927q0 -34 17 -65q32 -64 192 -116l6 381q-162 -52 -197 -127q-18 -38 -18 -73zM652 144q216 66 216 196q0 15 -3 34q-31 154 -207 207z" />
<glyph unicode="%" horiz-adv-x="1494" d="M104 859q0 73 27 142q45 117 148 163q51 23 103 23t105 -23q105 -46 139 -163q16 -56 16 -116q0 -70 -21 -146q-39 -143 -156 -186q-49 -20 -96 -20q-64 0 -120 35q-100 60 -132 188q-13 53 -13 103zM161 31q0 12 1 27q10 70 49.5 74.5t202.5 158.5t387 445t237 368 q6 38 6 65t-6 41q-6 10 -6 18q0 12 14 14q9 2 20 2q17 0 42 -4q40 -7 63 -88q12 -41 12 -74q0 -34 -13 -61q-24 -52 -389.5 -467t-465.5 -491q-95 -73 -128 -73h-2q-24 2 -24 45zM201 859q0 -37 11 -75q22 -96 88 -131q33 -19 66 -19t67 18q67 35 91 131q12 49 12 94t-11 86 q-23 85 -84 113q-32 13 -62 13q-31 0 -63 -13q-62 -28 -94 -113q-21 -51 -21 -104zM843 324q0 74 27 143q45 118 148 164q50 22 102 22t106 -23q105 -46 139 -164q16 -54 16 -115q0 -69 -20 -145q-40 -143 -157 -188q-50 -18 -97 -18q-63 0 -119 34q-100 60 -132 188 q-13 52 -13 102zM951 325q0 -37 10 -76q22 -94 88 -130q32 -19 66 -19q32 0 67 19q66 35 91 130q12 49 12 94t-11 86q-24 85 -85 112q-31 13 -61 13q-31 0 -62 -13q-62 -27 -95 -112q-20 -51 -20 -104z" />
<glyph unicode="&#x26;" horiz-adv-x="1463" d="M122 252v17q6 121 78 211.5t261 181.5q-43 96 -65 240q-6 36 -6 69q0 99 50 174q66 101 197 111h24q113 0 179 -83q57 -73 57 -162q0 -25 -4 -50q-21 -120 -88 -185.5t-215 -149.5q71 -178 199 -331q180 217 234.5 336t70.5 144q13 22 21 22h3q4 -1 4 -13q0 -15 -7 -47 q-11 -58 -62.5 -192.5t-207.5 -308.5q74 -85 170 -111q29 -8 55 -8q58 0 98 42q56 59 62 102q3 27 36 27q18 0 47 -9q56 -19 56 -49q0 -11 -7 -23q-29 -48 -103 -132q-61 -67 -167 -67q-24 0 -51 4q-143 18 -267 145q-72 -71 -168 -122q-94 -50 -201 -50h-7q-112 2 -197 82 q-79 75 -79 185zM230 278q0 -41 17 -83q39 -106 160 -106q14 0 29 2q145 13 273 133q-127 139 -215 356q-138 -71 -215 -169q-49 -64 -49 -133zM500 980q0 -19 2 -41q17 -125 58 -229q199 110 228 237q8 32 8 60q0 81 -63 123q-41 26 -81 26q-43 0 -85 -31q-67 -51 -67 -145 z" />
<glyph unicode="'" horiz-adv-x="1024" d="M457 1231.5q-24 216.5 15.5 241.5t79 0t15.5 -241.5t-55 -216.5t-55 216.5z" />
<glyph unicode="(" horiz-adv-x="547" d="M71 624q1 84 15 174t49 183t108.5 202t137.5 189l29 36q8 11 19 18.5t18.5 7t14 -8.5t-4.5 -26l-30 -49q-21 -33 -75 -130.5t-74 -146.5t-38 -118t-30 -139t-15 -147.5t0 -134.5q3 -96 15.5 -170t27 -126t42 -125.5t121.5 -233.5l26 -45l33 -55q0 -19 -8.5 -23t-22.5 4.5 t-48 51.5l-32 40q-41 50 -111 155t-104 196.5t-48 181t-14.5 148t-0.5 91.5z" />
<glyph unicode=")" horiz-adv-x="540" d="M67 -198l32 54l26 45q93 161 120.5 233.5t43 127t27 124.5t14 148.5t1.5 137.5q-4 101 -15 166t-30.5 138t-40.5 125.5t-64.5 129.5t-81.5 142l-29 49l-3 29l12 5l17 -7l20 -19l28 -36q84 -109 146.5 -199.5t99 -189t49 -183.5t15 -149.5t2.5 -91.5q-1 -77 -16.5 -172 t-49 -185.5t-103 -194t-110.5 -154.5l-33 -41q-36 -45 -49 -53t-21 -3.5t-7 24.5z" />
<glyph unicode="*" horiz-adv-x="892" d="M143 488.5q-2 43.5 94.5 69t160.5 55.5q8 4 15 7q-7 3 -15 7q-64 30 -160.5 55.5t-94.5 69t38 68t108 -45t131 -108.5q7 -5 13 -10q0 8 -1 17q-5 70 -30.5 166.5t14 116t78.5 0t13.5 -116t-30.5 -166.5q-1 -9 -2 -17q7 5 16 10q58 39 130 108.5t108 45t38.5 -68 t-94.5 -69t-160 -55.5q-9 -4 -16 -7q7 -3 16 -7q63 -30 160 -55.5t94.5 -69t-38.5 -68t-108 45t-130 108.5q-9 5 -15 10q0 -7 1 -15q5 -70 30.5 -166.5t-13.5 -116t-78.5 0t-14 116t30.5 166.5q1 8 1 15q-6 -5 -13 -10q-59 -39 -131 -108.5t-108 -45t-38 68z" />
<glyph unicode="+" horiz-adv-x="1442" d="M100 570v86h570v570h86v-570h572v-86h-572v-571h-86v571h-570z" />
<glyph unicode="," horiz-adv-x="998" d="M279 -198q0 14 35 47q46 43 89 97q38 50 38 73v4q-4 22 -27 47q-12 13 -12 23q0 9 12 16q23 13 64 23q4 1 9 1q38 0 94 -71q44 -56 44 -92q0 -14 -8 -27q-27 -38 -96.5 -58t-147.5 -60q-61 -31 -83 -31q-5 0 -7 2q-4 2 -4 6z" />
<glyph unicode="-" horiz-adv-x="1444" d="M99 567v86h1228v-86h-1228z" />
<glyph unicode="." horiz-adv-x="1000" d="M432 -85q0 37 26 63t63 26t63.5 -26t26.5 -63q0 -38 -26.5 -64t-63.5 -26t-63 26t-26 64z" />
<glyph unicode="/" horiz-adv-x="954" d="M1 -105l860 1481h93l-860 -1481h-93z" />
<glyph unicode="0" horiz-adv-x="1000" d="M113 574q0 164 49 319q70 231 218 320q73 44 144 44q74 0 147 -45q144 -90 182 -322q15 -86 15 -179q0 -158 -41 -333q-66 -282 -232 -369q-71 -37 -136 -37q-88 0 -165 68q-134 117 -169 370q-12 82 -12 164zM230 568q0 -62 8 -126q24 -213 125 -292q51 -40 104 -40 q52 0 106 39q109 78 148 291q24 128 24 247q0 77 -10 151q-26 185 -118 250q-48 34 -97 34q-47 0 -95 -30q-99 -61 -155 -250q-40 -131 -40 -274z" />
<glyph unicode="1" horiz-adv-x="682" d="M205.5 1116q16.5 3 73.5 42t74.5 84.5t42 32.5t63.5 -60t16.5 -86t-55.5 -510t-21 -549.5t-22.5 -106t-73.5 69t-31 109.5t13 195.5t31 444.5t20 298q-53 -46 -82 -34.5t-47 39.5t-1.5 31z" />
<glyph unicode="2" horiz-adv-x="1000" d="M104 102q0 21 11 25q19 5 50.5 20.5t223.5 232t275 442.5q33 91 33 153q0 94 -75 126q-55 22 -105 22q-63 0 -117 -35q-98 -64 -122 -102q-8 -14 -18 -14q-18 0 -40 50q-16 36 -16 61q0 28 19 46q37 30 171 96q51 25 107 25q92 0 199 -64q119 -72 119 -223 q0 -70 -26 -158q-81 -276 -448 -639q366 30 385 45q3 3 8 3q22 0 78 -51q48 -45 48 -78q0 -15 -9 -26q-23 -32 -34 -32q-4 0 -7 3q-11 12 -86 35q-36 11 -102 11q-78 0 -199 -15q-225 -26 -263 -51q-10 -8 -18 -8q-23 0 -34 51q-8 31 -8 49z" />
<glyph unicode="3" horiz-adv-x="1000" d="M180.5 62q29.5 9 151 28t238 91t147.5 189t3 186.5t-102.5 84t-102.5 14.5q-91 0 -147 -35t-98 -57q-9 -5 -15 -5q-20 0 -20 42q0 12 2 30q9 98 62.5 102.5t204 79t173.5 171.5q6 25 6 46q0 61 -47 89q-37 23 -91 23q-41 0 -92 -12q-120 -30 -162 -57q-11 -8 -19 -8 q-20 0 -20 49v6q2 76 23.5 84t169.5 39q46 10 90 10q95 0 176 -46q103 -57 103 -183q0 -20 -2 -43q-20 -159 -247 -228h18q170 -6 230.5 -122t20.5 -279.5t-181.5 -247t-274 -92t-180 16.5t-18 34z" />
<glyph unicode="4" horiz-adv-x="1000" d="M79 307.5q21 3.5 73.5 76.5t182 408t113 372.5t-29.5 57.5t0 28t40.5 16.5t70 -40.5t51 -91.5t-147.5 -395.5t-208 -428q208 22 345 39q16 180 20 346q6 201 -7 228t-23 37.5t5 23t35 20.5t61 -32.5t43 -66.5t-12 -223q-9 -142 -23 -321q158 21 164 28q12 15 52.5 -47 t19.5 -92.5t-32.5 -14.5t-67.5 26q-37 7 -143 1q-2 -23 -4 -47q-20 -270 -54.5 -286t-58 41t-13.5 69q9 11 30 215q-8 -1 -16 -1q-204 -18 -287 -41t-112 -45.5t-58.5 57t-8.5 83z" />
<glyph unicode="5" horiz-adv-x="1000" d="M154.5 59.5q63.5 -3.5 164.5 25.5t194 90t151.5 194t40.5 222.5t-107.5 117t-192 -9t-123.5 -85t-47.5 -37t-54 69t-6.5 69t52 51t64 224t16.5 212t-28 33.5t1.5 14.5t37.5 16.5t73.5 -24t55 -63l1 -1q296 50 304 68q8 19 58.5 -21t44 -69t-26 -24.5t-168 -22.5 t-168.5 -31q-13 -2 -49 45q-8 -46 -28 -125q-39 -151 -69 -208q173 48 308 12.5t171 -170t-45.5 -305t-205.5 -244t-234.5 -86.5t-179 26t-5 35.5z" />
<glyph unicode="6" horiz-adv-x="1000" d="M197.5 247.5q-64.5 229.5 46.5 467.5t245 356q134 119 141 132t-5.5 36t2 26t55.5 3t57.5 -73.5t-19 -91t-142.5 -95.5t-219 -285l-1 -1q35 31 81 48q153 59 288.5 -24t155.5 -274t-93.5 -340.5t-320.5 -131.5t-271.5 247.5zM278 443q0 -58 13 -114q44 -188 182.5 -210.5 t223.5 81.5t73.5 241t-99 202t-205 25t-175.5 -194q-7 -18 -13 -31z" />
<glyph unicode="7" horiz-adv-x="1000" d="M129 1161q0 17 35 17q39 0 301 20.5t295 49.5q7 7 16 7q27 0 62 -71q24 -46 24 -73q0 -28 -25 -38q-47 -18 -178.5 -289.5t-140.5 -514.5t-30 -290q-9 -21 -25 -21q-21 0 -55 38q-46 52 -46 88q0 10 4 18q16 41 47.5 288.5t274.5 720.5q-366 -46 -416.5 -70.5 t-77.5 -32.5q-3 -1 -6 -1q-23 0 -37 61q-15 67 -21 89q-1 2 -1 4z" />
<glyph unicode="8" horiz-adv-x="1000" d="M108 234q0 28 7 60q35 168 200 359q-175 102 -178 269q-1 4 -1 7q0 162 146 256q102 66 197 66q42 0 82 -14q132 -42 138 -66q1 -5 1 -10q0 -25 -26 -72q-21 -38 -37 -38q-9 0 -15 9q-22 28 -104 56q-25 9 -51 9q-60 0 -124 -44q-85 -58 -85 -148q0 -9 1 -19 q10 -105 137 -177q227 241 361.5 349.5t159.5 108.5q20 0 20 -39q0 -11 -1 -23q-7 -63 -35 -71.5t-123 -95t-279 -286.5q270 -132 284 -350v-28q0 -198 -191 -277q-98 -40 -185 -40q-93 0 -174 48q-125 75 -125 201zM227 240q0 -88 87 -117q46 -16 95 -16q64 0 135 25 q118 44 118 180q0 9 -1 18q-8 153 -240 261q-167 -187 -189 -309q-5 -23 -5 -42z" />
<glyph unicode="9" horiz-adv-x="1000" d="M119 821q0 140 106 263q139 160 300 164h14q149 0 200 -79q10 53 10 70v5q0 12 35 15h1q35 0 70 -61q23 -41 23 -64q0 -14 -8 -23q-22 -23 -76 -242.5t-97 -523.5t-46.5 -345t-33.5 -62q-9 -6 -17 -6q-23 0 -47 47q-24 48 -24 76q0 8 3 16q10 26 26.5 148t55.5 344 q-101 -58 -210 -58q-40 0 -80 8q-151 29 -195 220q-10 45 -10 88zM233 831q0 -35 10 -71q34 -142 151 -142q8 0 17 1q131 11 183 62.5t72.5 151.5t52.5 254q-29 -27 -45 -27q-10 0 -14 13q-10 32 -119 56q-18 4 -36 4q-91 0 -186 -101q-86 -93 -86 -201z" />
<glyph unicode=":" horiz-adv-x="1024" d="M393 77q-8 15 16 20.5t66 -2.5t54 -19t40.5 -44.5t30 -66t-27 -67.5t-46 -28t-44.5 58t-54 92.5t-35 56.5zM393 425q-8 15 16 20.5t66 -2.5t54 -19t40.5 -44.5t30 -66t-27 -67.5t-46 -28t-44.5 58t-54 92.5t-35 56.5z" />
<glyph unicode=";" horiz-adv-x="996" d="M317 -150q0 13 32 44q42 40 79 90q36 47 36 68v3q-3 21 -24 44q-11 11 -11 20t11 15q21 12 58 22q4 1 8 1q35 0 86 -66q40 -52 40 -85q0 -14 -7 -24q-25 -36 -88 -54.5t-134 -54.5q-57 -30 -76 -30q-5 0 -7 1q-3 3 -3 6zM402 446q0 9 32 23q35 15 62 15q6 0 11 -1 q32 -3 77 -75q31 -49 31 -82q0 -14 -5 -25q-20 -35 -39 -39h-1q-21 0 -84 82q-69 84 -81 96q-3 3 -3 6z" />
<glyph unicode="&#x3c;" horiz-adv-x="1562" d="M102 557v108l1351 625v-103l-1243 -573l1242 -574v-97z" />
<glyph unicode="=" horiz-adv-x="1448" d="M99 395v86h1228v-86h-1228zM99 756v86h1228v-86h-1228z" />
<glyph unicode="&#x3e;" horiz-adv-x="1578" d="M104 39l1243 573l-1243 573v103l1351 -625v-108l-1351 -614v98z" />
<glyph unicode="?" horiz-adv-x="997" d="M158 945q0 105 115 218q97 97 229 97q59 0 124 -19q211 -61 214 -277v-9q0 -208 -135 -251q-136 -44 -136 -157q0 -1 1 -3q2 -115 4 -173v-4q0 -41 -27 -41q-6 0 -16 3q-46 16 -64 54q-12 24 -12 41q0 10 4 18q11 20 13.5 143t131.5 179q123 54 123 185v10 q-5 138 -143 182q-44 14 -83 14q-86 0 -149 -67q-61 -65 -61 -126q0 -30 16 -60q24 -46 24 -72q0 -25 -21 -35q-43 -19 -79 -20l-1 -1q-36 0 -66 125q-6 22 -6 46zM366 187q0 12 40 29q41 19 74 19q8 0 15 -1q39 -5 94 -92q39 -62 39 -102q0 -17 -7 -30q-24 -44 -47 -49h-3 q-25 0 -103 101q-85 104 -99 118q-3 3 -3 7z" />
<glyph unicode="@" horiz-adv-x="1685" d="M181 578q0 165 79 340t239 277.5t363 102.5q202 0 342.5 -72t215.5 -205.5t75 -309.5q0 -175 -120 -308t-238 -162q-69 -17 -106 -17q-29 0 -41 9q-28 21 -43 48q-9 18 -9 45q0 15 2 31q-55 -68 -113.5 -96t-118.5 -28t-120 37t-98 114t-38 180q0 102 58 215.5t144.5 170 t157.5 56.5q72 0 128.5 -32t96.5 -99q11 59 11 85q0 12 -2 18q-4 7 -4 11q0 8 8 13q13 5 36 16q3 1 7 1q21 0 59 -57q27 -43 27 -71q0 -17 -8 -27q-24 -33 -66.5 -228t-50.5 -250q-2 -9 -2 -15q0 -33 31 -33q7 0 16 3q54 11 125 60.5t118.5 145.5t47.5 207q0 110 -61 213.5 t-181.5 165t-277.5 61.5q-156 0 -294 -78t-214 -223.5t-76 -315.5q0 -171 76 -297t219.5 -186.5t324.5 -60.5q180 0 306.5 63t166 97t87.5 87q21 23 35 23q18 0 23 -38q1 -7 1 -15q0 -62 -80 -132q-88 -79 -230 -134.5t-306 -55.5q-165 0 -299 40.5t-228 122t-147.5 201.5 t-53.5 286zM584 526q0 -80 46 -134t96 -54t94.5 24t85 71t66 119.5t25.5 144.5q0 97 -48.5 150t-105.5 53q-58 0 -98 -22.5t-77.5 -74t-60.5 -125t-23 -152.5z" />
<glyph unicode="A" horiz-adv-x="1202" d="M82 40q0 67 49 108q55 46 214 401t176 463q14 80 14 115q0 12 -1 20q-7 27 -43 53q-17 14 -17 25q0 12 19 22q37 19 62 19h3q25 -1 80.5 -51.5t237.5 -520t216 -531.5q23 -41 23 -84q0 -24 -8 -51q-15 -52 -38 -52q-8 0 -18 6q-37 24 -134 286.5t-291 700.5v-1 q0 -92 -208 -534q277 55 312 72q8 4 17 4q27 0 58 -38q30 -39 30 -64q0 -10 -4 -16q-10 -20 -31 -20q-9 0 -20 5q-14 5 -40 5q-37 0 -99 -12q-104 -19 -166 -36q-47 -13 -64 -13q-7 0 -10 1q-10 6 -25 22q-178 -349 -231 -377q-14 -8 -24 -8q-31 0 -38 60q-1 10 -1 21z" />
<glyph unicode="B" horiz-adv-x="1154" d="M109 18q0 16 15 39q33 49 67 49h7q38 -6 83 -7q-42 28 -42 68q0 4 1 7q4 45 21 453q10 243 10 347q0 70 -5 76q-6 10 -6 16t4 11q-27 -14 -42 -14q-7 0 -12 3q-13 11 -27 71q-6 24 -6 38q0 20 12 21q20 0 202 38q138 28 262 28q41 0 81 -3q158 -13 221 -133 q25 -47 25 -92q0 -72 -62 -139q-102 -110 -205 -152q136 -2 260 -90q100 -72 100 -205q0 -29 -5 -61q-27 -178 -230.5 -279t-427.5 -117q-119 -9 -188 -9q-62 0 -85 7q-28 8 -28 29zM333 1101q44 -30 55 -50q6 -14 6 -40q0 -11 -2 -25q-4 -46 -9 -271h16q46 0 93 9 q54 11 206 117q140 98 140 193q0 8 -1 16q-12 103 -150 110h-27q-131 0 -327 -59zM336 101q183 6 380.5 87t208.5 228q1 17 1 33q0 119 -71 155q-58 28 -146 28q-37 0 -79 -4q-144 -18 -169 -31q-8 -5 -17 -5q-25 0 -64 24q-9 -293 -15.5 -392t-28.5 -123z" />
<glyph unicode="C" horiz-adv-x="1155" d="M136 551q0 47 5 98q25 319 209 470q167 138 317 138q15 0 29 -1q163 -15 181 -16h10q13 0 31 2h2q23 0 46 -41q25 -43 25 -109q0 -42 -25 -42q-13 0 -33 12q-58 36 -202 63q-26 5 -54 5q-118 0 -244 -100q-152 -123 -177 -396q-4 -49 -4 -94q0 -203 95 -306 q100 -109 230 -109q21 0 44 3q157 20 237.5 117t87.5 158q3 30 19 30q15 0 44 -31q41 -46 41 -86q0 -13 -5 -25q-19 -50 -128 -166t-318 -136q-21 -2 -41 -2q-182 0 -306 163q-116 151 -116 401z" />
<glyph unicode="D" horiz-adv-x="1158" d="M91 22q0 16 15 41q33 56 56.5 58t105.5 2q-14 24 -14 56q0 7 1 16q4 40 17 411q5 179 5 278q0 106 -6 121q-14 27 -24 48q-4 8 -4 15q0 12 10 23q-45 -19 -67 -19l-1 1q-22 0 -37 65q-4 19 -4 35q0 32 21 36q31 8 221 36q49 7 100 7q144 0 302 -58q213 -79 257 -395 q8 -59 8 -115q0 -244 -156 -425q-192 -224 -463 -247q-200 -17 -277 -17q-27 0 -40 2q-26 6 -26 25zM305 1106q29 -5 68 -53q35 -43 35 -72q0 -3 -1 -7q-5 -31 -9 -231t-21.5 -394.5t-34.5 -222.5q295 11 447 194q130 155 130 367q0 37 -3 76q-28 260 -203 327 q-100 37 -217 37q-91 0 -191 -21z" />
<glyph unicode="E" horiz-adv-x="1095" d="M97 101q0 12 8 14q18 3 50 16.5t52 400.5q6 123 6 212q0 188 -28 218q-32 32 -32 48q0 6 4 10q14 16 34 27q-37 26 -45 77q-3 13 -3 22q0 24 15 24h4q4 -2 15 -2q52 0 246 20q238 22 322 37t102 25q3 2 7 2q23 0 85 -42q56 -37 56 -70q0 -11 -5 -21q-18 -31 -41 -31 q-8 0 -16 3q-32 14 -92 14t-579 -58q52 -25 66 -70q9 -35 9 -62q0 -7 -1 -14q-4 -31 -9 -230q337 43 373 69q14 11 36 11q31 0 79 -23q63 -31 63 -67q0 -8 -4 -16q-15 -38 -30 -38q-3 0 -6 1q-11 6 -50 6q-23 0 -57 -2q-91 -6 -204.5 -26t-131.5 -24h-3q-18 0 -65 55 q-10 -382 -48 -474q541 41 564 57q4 2 10 2q27 0 90 -54q57 -50 57 -83q0 -11 -7 -20q-22 -30 -44 -30q-6 0 -10 2q-27 9 -109 36q-42 14 -125 14q-79 0 -198 -13q-241 -26 -300 -59q-19 -10 -34 -10q-36 0 -57 52q-19 45 -19 64z" />
<glyph unicode="F" horiz-adv-x="1105" d="M124 1145q0 29 19 25q5 -1 19 -1q56 1 248 19q242 24 327 39t104 25q3 2 7 2q24 0 86 -43q57 -38 57 -71q0 -12 -6 -22q-18 -32 -40 -32q-9 0 -17 4q-32 15 -93 15t-590 -62q53 -23 66 -69q10 -36 11 -64q0 -8 -2 -14q-4 -32 -5 -260q349 42 385 68q15 11 37 12 q31 0 79 -23q65 -31 65 -68q0 -8 -3 -17q-18 -46 -36 -37q-12 6 -55 6q-23 0 -56 -2q-92 -5 -207.5 -26.5t-133.5 -25.5h-3q-20 0 -72 57q-13 -364 -31 -479t-52 -151q-13 -13 -25 -13q-21 0 -40 39q-17 35 -17 68q0 23 8 45q22 53 36 439q4 96 4 172q0 225 -32 258 q-33 32 -33 49q0 6 4 11q14 15 34 25q-37 29 -45 81q-2 12 -2 21z" />
<glyph unicode="G" horiz-adv-x="1161" d="M111 518q0 89 15 191q48 332 236 446q159 95 284 95q23 0 45 -3q141 -21 164 -29t61 -4h3q36 0 57 -97q5 -27 5 -45q0 -35 -22 -35q-9 0 -21 5q-59 26 -179 68q-37 14 -80 14q-94 0 -213 -66q-173 -94 -214 -378q-15 -97 -15 -178q0 -159 53 -261q74 -142 211 -142 q12 0 25 1q155 14 254 152.5t99 297.5q-128 -21 -177.5 -35.5t-63.5 -20t-27 22t-24.5 68.5t27.5 41t160 19t147 51q7 9 18 9q26 0 71 -58q40 -54 40 -82q0 -16 -10 -23q-32 -24 -33.5 -209t-7 -283t-31.5 -123q-8 -7 -17 -7q-23 0 -57 47q-34 46 -34 75q0 12 6 21 q17 28 17 108v17q-100 -200 -343 -212q-13 -1 -27 -1q-221 0 -325 195q-77 144 -77 348z" />
<glyph unicode="H" horiz-adv-x="1090" d="M99 1171q0 7 13 13q25 10 48 16h4q23 0 72 -50q49 -51 50 -88q0 -3 -1 -5q-4 -38 -9 -358q207 33 317 51t133 26q3 1 6 1q27 0 105 -55q-3 402 -26 436.5t-43.5 49.5t8 26t58.5 22q4 2 9 2q28 0 74 -51q51 -59 51 -93l-4 -488v-58q0 -398 7 -481q1 -14 1 -26 q0 -68 -29 -97q-9 -10 -21 -10q-27 0 -65 61q-40 63 -40 109q1 16 5 29q16 46 15 389v119q-13 -17 -42 -13t-73 6q-4 0 -8 1q-50 -1 -206 -25q-170 -26 -184.5 -34.5t-47.5 22.5q0 -506 -33 -572q-17 -35 -37 -34q-18 0 -40 30q-33 47 -32 78q0 10 3 19q14 37 17 491 q1 88 1 159q-1 299 -11 319q-12 24 -35 46q-10 9 -10 17z" />
<glyph unicode="I" horiz-adv-x="434" d="M93 1225q0 10 27 20q40 15 67 20q2 1 5 1q27 0 65 -56q38 -57 38 -98v-6q-4 -42 -16 -488q-7 -253 -8 -390q1 -104 5 -140q2 -18 1 -33q0 -58 -28 -84q-10 -10 -22 -10q-28 0 -64 58q-37 57 -37 100q0 17 6 33q22 52 26 278q4 224 8 462q1 35 1 65q-1 177 -21 207 q-24 34 -45 51q-8 5 -8 10z" />
<glyph unicode="J" horiz-adv-x="863" d="M58 188q0 23 14 41q20 24 58 42q9 4 17 4q23 0 29 -43q8 -57 56 -107q36 -38 122 -38q27 0 59 3q134 16 173.5 97t44.5 173q3 61 3 175v127q-3 209 -9.5 325.5t-20.5 156t-36 56.5t-2 32t53 26h8q30 0 77 -60q50 -62 50 -94q0 -4 -1 -7q-4 -19 -4 -135q0 -77 2 -198 q2 -152 2 -259q0 -106 -2 -168q-4 -123 -79 -234.5t-253 -122.5q-21 -1 -41 -1q-146 0 -224 74q-87 85 -94 119q-2 8 -2 16z" />
<glyph unicode="K" horiz-adv-x="1153" d="M98 1206q0 9 14 15q26 11 52 19q3 1 6 0q26 0 68 -54q44 -54 44 -82v-6q-6 -28 -16 -501q332 329 388 433q54 100 54 140t-12 60q-10 18 12 20.5t47 8.5h3q24 0 59 -82q19 -47 19 -78q0 -27 -14 -41q-32 -31 -114.5 -137t-273.5 -259q27 0 44.5 -33t129.5 -172t275 -254 t194 -136q10 -8 10 -13q0 -7 -33 -6q-53 0 -124 -9.5t-102.5 -26t-48 -2.5t-129 134.5t-177 287.5t-88.5 185q-77 -66 -119 -83q0 -511 -40 -559q-15 -19 -30 -19q-22 0 -42 49q-22 55 -22 93q0 18 4 30q14 44 18 324q1 109 1 203q1 149 -3 263q-6 186 -16 216.5t-29 53.5 q-9 10 -9 18z" />
<glyph unicode="L" horiz-adv-x="998" d="M99 94q0 12 7 14q18 2 52.5 28t69.5 503q15 209 15 334q0 163 -25 187q-34 33 -34 49q0 5 4 9q15 16 38 30q6 3 15 3q23 0 67 -26q58 -37 66.5 -66t4 -60.5t-26 -450.5t-69.5 -518q421 38 445 54q4 3 10 2q28 0 96 -56q61 -51 61 -83q0 -13 -8 -22q-24 -30 -47 -30 q-6 0 -11 2q-28 9 -115 37q-50 16 -128 16q-60 0 -134 -9q-174 -21 -237 -54q-20 -10 -37 -10q-37 0 -59 52q-20 47 -20 65z" />
<glyph unicode="M" horiz-adv-x="1271" d="M94 107q0 21 9 37q25 40 35 396q8 294 7 407v39q-2 92 -17.5 138t-25.5 65q-3 3 -3 8q0 11 22 19q30 8 64 10h1q34 0 90 -118q57 -120 371 -858q327 838 331 876q1 6 1 12q-1 30 -19 62q-22 36 -6 46t44 19q5 1 10 1q25 0 61 -31q43 -39 56 -91.5t21 -578.5q1 -82 0 -153 q0 -380 -37 -416q-17 -16 -33 -16q-27 0 -50 46q-26 52 -26 88q0 16 4 29q16 43 20 341q1 77 1 145q0 195 -7 316q-317 -907 -339 -938t-48 -33h-2q-25 0 -54 66q-20 45 -20 67q1 11 5 17q1 2 1 5q1 41 -131 353q-144 342 -182 415q-5 -865 -50 -905q-16 -14 -31 -14 q-27 0 -50 50q-23 46 -23 79z" />
<glyph unicode="N" horiz-adv-x="1011" d="M73 1207q0 13 14 19q22 12 65 12h4q46 0 98 -80.5t511 -883.5q7 609 7 744v34q-2 54 -32 120q-17 37 -16 56q0 14 10 17q23 7 58 13h6q32 0 69 -57q36 -57 36 -109q0 -6 -1 -13q-5 -58 -10 -517.5t-25 -510t-65 -62.5q-7 -2 -13 -2q-34 0 -39 68q-6 80 -66.5 152.5 t-440.5 758.5q1 -114 1 -215q0 -623 -27 -711q-18 -55 -41 -55q-20 0 -43 39q-42 68 -42 110q-1 12 3 22q14 46 18.5 313.5t13.5 448.5q3 59 3 102q-1 88 -13 108q-18 28 -36 57q-7 12 -7 22z" />
<glyph unicode="O" horiz-adv-x="1121" d="M89 621q0 142 46 276q80 229 261 318q89 43 180 43q93 0 187 -44q185 -90 246 -319q27 -106 27 -223q0 -136 -38 -285q-70 -279 -275 -366q-88 -37 -169 -37q-111 0 -211 67q-175 117 -231 367q-23 103 -23 203zM240 438q46 -214 180 -294q68 -41 136 -41t136 39 q138 80 186 296q25 110 25 213q1 100 -23 195q-48 192 -174 254q-63 31 -126 31l-126 -31q-126 -62 -193 -255q-40 -115 -40 -237q1 -84 19 -170z" />
<glyph unicode="P" horiz-adv-x="1089" d="M69 1153q0 38 25 39q36 2 88.5 14t260.5 44q63 10 124 10q139 0 267 -51q160 -63 160 -260q0 -29 -4 -62q-28 -251 -274 -332q-224 -74 -344 -74q-12 0 -23 1q-19 -349 -20 -437q-1 -17 1 -25q1 -5 1 -10q0 -37 -29 -56q-9 -5 -17 -5q-27 0 -59 56q-28 49 -28 92 q0 21 7 39q20 58 29 421q8 310 8 406v27q-2 70 -22 86q-83 -39 -107 -39t-39 76q-5 24 -5 40zM306 1110q56 -26 60 -82q2 -25 2 -56q0 -39 -3 -86q-5 -86 -9 -289q40 21 74 21q11 0 21 -2q6 -1 13 -1q52 -1 202 49q172 56 195 240q3 23 3 44q0 145 -139 184q-64 18 -144 18 q-119 0 -275 -40z" />
<glyph unicode="Q" horiz-adv-x="1269" d="M95 567q0 165 54 327q82 248 253 324q79 36 162 36q98 0 202 -48q192 -89 242 -406q14 -90 14 -176q0 -212 -88 -391q110 -80 165 -112t114 -58q34 -15 34 -22q0 -4 -16 -3h-4q-43 0 -131 -18q-92 -18 -110 -27q-2 -1 -3 -1q-24 0 -128 116q-51 -68 -199 -122 q-50 -19 -104 -19q-105 0 -222 70q-178 105 -221 358q-14 85 -14 172zM236 441q26 -213 160 -296q86 -53 158 -53q41 0 78 17q100 47 124 102q-199 218 -266 229q-44 8 -74 8q-15 0 -26 -2q-34 -6 -18.5 36t51.5 47q9 1 21 1q35 0 96 -11q80 -15 284 -198q57 139 57 316 q0 64 -7 132q-28 260 -166 327q-74 37 -141 37q-59 0 -112 -27q-115 -59 -181 -256q-46 -139 -46 -288q0 -60 8 -121z" />
<glyph unicode="R" horiz-adv-x="1153" d="M54 1143q0 28 21 31q33 5 168.5 42t338.5 38h1q214 0 319 -162q48 -74 49 -148q1 -86 -67 -172q-124 -158 -442 -190q31 -16 148.5 -153t289.5 -230t228 -113q23 -9 23 -14q0 -6 -47 -5q-79 0 -168 -18t-114 -28t-37.5 0t-108.5 124t-190.5 261.5t-131.5 159.5 q-3 -307 -3 -449t-44 -166q-11 -7 -21 -7q-31 0 -56 57q-22 50 -22 84q0 17 6 31q18 40 25 460q2 128 2 219q0 208 -11 224q-16 23 -23 27.5t4 23.5q-54 -25 -83 -29h-3q-27 0 -44 63q-7 23 -7 39zM229 1082q43 -8 83 -50q34 -37 34 -71v-11q-6 -40 -15 -283q317 31 422 137 q71 71 71 148q0 37 -17 75q-51 117 -237.5 117t-340.5 -62z" />
<glyph unicode="S" horiz-adv-x="1079" d="M81 2q0 17 21 45q42 60 67 60q3 0 5 -1q24 -7 196 -13q15 -1 31 -1q158 0 321 56q152 52 152 172q0 22 -4 44q-32 154 -271 212t-359 205q-58 72 -58 148q0 80 64 165q117 156 456 156q22 0 44 -1q19 -1 35 -1q43 0 71 9q4 1 10 1q35 0 86 -67q38 -52 38 -81 q0 -15 -10 -24q-12 -10 -28 -10q-24 0 -58 22q-58 38 -240 44h-15q-172 0 -269 -100q-53 -55 -53 -109q1 -47 43 -95q90 -100 355 -171t301 -285q6 -32 6 -62q0 -166 -171 -247q-203 -95 -433 -99q-98 -1 -166 -1q-93 0 -130 3t-37 26z" />
<glyph unicode="T" horiz-adv-x="1069" d="M84 1161q0 21 16 20h3q33 0 265 19q244 20 368 35t149 30q4 4 11 4q24 0 66 -42q39 -40 39 -69q0 -10 -5 -19q-17 -27 -41 -27q-6 0 -13 2q-34 10 -118 10h-4q-85 0 -265 -17q96 -58 96.5 -103t0.5 -404v-476q0 -117 -46 -167q-18 -19 -33 -19q-27 0 -49 53 q-27 60 -27 98q1 15 5 26q14 40 18 438q1 80 1 145q0 262 -14 296q-18 44 -35.5 54.5t4.5 48.5q-292 -29 -324.5 -39t-42 10.5t-21.5 67.5q-4 15 -4 25z" />
<glyph unicode="U" horiz-adv-x="1059" d="M72 1207q0 6 7 10q19 7 49 17q4 1 8 1q29 0 77 -55q50 -58 50 -87q0 -3 -1 -7q-6 -30 -12 -295q-3 -118 -3 -215q1 -122 5 -208q8 -156 124 -234q73 -48 161 -48q53 0 109 18q152 46 177 219.5t27 494.5v142q0 186 -4 210q-6 31 -10 64q-3 19 21 19q17 0 48 -9 q62 -21 62 -66q0 -8 -3 -16q-7 -32 -6 -138q0 -89 5 -229q1 -66 1 -127q0 -226 -26 -384q-32 -204 -247 -276q-89 -30 -169 -30q-114 0 -209 60q-164 104 -182 298q-13 137 -13 310q0 72 2 150q4 137 4 216q0 73 -3 94q-7 44 -33 74q-16 16 -16 27z" />
<glyph unicode="V" horiz-adv-x="1224" d="M80 1175q0 8 16 18q25 17 59 29q10 4 21 4q26 0 58 -20q46 -28 83.5 -70.5t266.5 -885.5q422 949 435 995q6 19 19 19q19 0 51 -35q37 -41 37 -72q0 -15 -8 -26q-28 -38 -212 -474.5t-229 -584.5q-36 -112 -86 -112q-15 0 -32 11q-72 48 -72 101.5t-11.5 109t-136.5 476 t-179.5 458.5t-72.5 49q-7 4 -7 10z" />
<glyph unicode="W" horiz-adv-x="1466" d="M64 1182q0 6 9 14q21 16 59 36q13 7 28 7q30 1 74 -25q66 -38 79 -89.5t179 -754.5q194 609 194 730q0 12 -2 20q-24 74 -43.5 86.5t0 26.5t44.5 27q7 3 16 3q25 0 70 -26q60 -37 68.5 -86.5t179.5 -780.5q208 840 234 877q11 14 25 14q22 0 55 -37q35 -39 35 -69 q0 -16 -9 -30q-28 -38 -94 -310.5t-136.5 -553t-102.5 -281.5h-1q-31 0 -63 49q-20 30 -19 66q0 23 8 48q2 6 2 17q0 109 -186 714q-115 -434 -195 -672q-78 -231 -110 -231h-2q-32 7 -58 60q-14 29 -13 58q-1 25 9 50q3 8 4 26q0 98 -100 482q-118 453 -156.5 477t-65.5 40 q-16 8 -16 18z" />
<glyph unicode="X" horiz-adv-x="1253" d="M109 27v12q3 74 41.5 83t153 160.5t191.5 275.5q-191 415 -258 477t-100 75q-16 7 -16 17q0 11 18 28q35 31 63 37q3 1 6 1q27 0 79 -43q58 -48 125 -169.5t156 -309.5q202 356 206 439q1 19 1 35q-1 55 -13 75q-16 27 7 34q16 4 43 4h18q41 -2 72 -86q19 -52 20 -93 q0 -25 -8 -47q-19 -56 -285 -468q166 -259 334.5 -376t208.5 -137q19 -9 19 -14t-25 -4h-11q-45 0 -127 -7q-94 -8 -128 -19.5t-45 -0.5t-95 109.5t-210 332.5q-198 -303 -289 -392t-123 -90h-1q-28 0 -28 61z" />
<glyph unicode="Y" horiz-adv-x="1027" d="M67 1167q0 5 8 9q20 11 49 26q9 5 22 5q27 0 70 -22q64 -32 76 -63t111 -250t104 -341q312 593 312 642q0 29 -23 57q-15 19 11 21q9 1 18 1q19 0 40 -3q32 -4 69 -82q22 -44 22 -77q0 -24 -12 -41q-29 -40 -63.5 -89t-249 -471.5t-268.5 -497.5q-27 -38 -48 -38t-36 41 q-13 35 -13 62q0 34 20 57q37 41 182 341q-47 25 -67 98.5t-115.5 276.5t-123.5 249.5t-68 66.5q-27 13 -27 22z" />
<glyph unicode="Z" horiz-adv-x="1096" d="M82 112q0 39 39 45q45 8 88.5 54t332.5 456q258 366 258 421q0 7 -4 9q-332 -31 -459 -53t-138.5 -26t-25 29t-15 82.5t23.5 45.5q6 -1 20 -1q44 0 176 10q172 13 325 29.5t182 40.5q5 4 12 4q28 0 78 -72q31 -46 31 -79t-29 -55q-61 -43 -266 -336.5t-396 -557.5 q511 44 559 60q8 3 16 2q41 0 89 -66q38 -54 38 -92q0 -19 -9 -33q-19 -30 -36 -30q-8 0 -14 7q-22 22 -92 47q-32 11 -107 11q-89 0 -241 -16q-280 -30 -341 -57q-24 -11 -41 -11q-26 0 -34 29q-13 46 -19 94q-1 5 -1 9z" />
<glyph unicode="[" horiz-adv-x="560" d="M115 -226v1605h341v-79h-214v-1447h214v-79h-341z" />
<glyph unicode="\" horiz-adv-x="960" d="M7 1376h93l860 -1481h-93z" />
<glyph unicode="]" horiz-adv-x="560" d="M94 -120h212v1441h-212v78h348v-1604h-348v85z" />
<glyph unicode="^" horiz-adv-x="889" d="M202 1108l234 382l243 -382h-22l-221 185l-210 -185h-24z" />
<glyph unicode="_" horiz-adv-x="1024" d="M82 -85h868v-74h-868v74z" />
<glyph unicode="`" horiz-adv-x="1024" d="M457 1231.5q-24 216.5 15.5 241.5t79 0t15.5 -241.5t-55 -216.5t-55 216.5z" />
<glyph unicode="a" horiz-adv-x="994" d="M132 391q0 197 126 321q150 148 300 150h6q144 0 160 -70v9q0 73 -16 95t3 31.5t42 14.5q2 1 3 1q23 0 68 -53q42 -48 42 -84q0 -7 -1 -13q-10 -39 -13 -179q-1 -49 -1 -106q-1 -102 3 -226q1 -47 2 -87q0 -122 -13 -172q-10 -36 -30 -36q-17 0 -39 24q-52 52 -52 90 q0 31 2 61q-117 -165 -271 -165q-39 0 -81 10q-206 52 -234 305q-6 41 -6 79zM265 350q8 -210 138 -230q13 -2 27 -2q122 0 293 160q3 81 3 158q0 122 -7 236q-71 54 -145 54q-76 0 -157 -56q-152 -104 -152 -300v-20z" />
<glyph unicode="b" horiz-adv-x="980" d="M71 1216q0 7 12 14q21 12 49 22q3 1 8 1q28 0 81 -54q61 -61 64 -103q2 -25 2 -63q0 -26 -1 -58q-2 -80 -8 -224q135 119 287 119h4q154 -2 259 -141q55 -74 55 -182q0 -93 -42 -210q-89 -254 -289 -300q-72 -17 -132 -17q-104 0 -167 52q-5 -60 -35 -83q-7 -5 -16 -5 q-25 0 -59 58q-29 48 -29 78q0 16 9 26q23 27 23 428v66q-2 464 -28 508t-41 58q-6 5 -6 10zM260 164q76 -37 154 -37q56 0 112 19q134 44 196 228q33 96 33 167q-1 63 -27 105q-56 88 -160 96q-10 1 -20 1q-94 1 -178 -71q-93 -78 -93.5 -122.5t-16.5 -385.5z" />
<glyph unicode="c" horiz-adv-x="909" d="M80 423q0 199 124 310q141 127 277 127q11 0 23 -1q71 -6 112 -6q45 0 57 7q11 8 23 8q11 0 22 -6q22 -11 50 -78q14 -34 14 -56.5t-13.5 -35t-29.5 -12.5q-17 0 -35 13q-36 25 -174 38q-16 2 -32 2q-118 0 -207 -88q-88 -86 -88 -244q1 -25 3 -51q16 -196 213 -224 q54 -8 100 -8q121 0 183 56q84 77 109 126q10 21 17 21q9 0 12 -40v-4q0 -67 -104 -189q-81 -93 -239 -93q-56 0 -121 11q-252 43 -288 316q-8 53 -8 101z" />
<glyph unicode="d" horiz-adv-x="997" d="M100 411q0 176 100 299q130 160 318 170q25 1 47 1q144 0 160 -55q1 51 1 92q0 157 -18 191q-22 43 -45 69.5t2.5 40.5t68.5 29q7 2 13 2q39 0 87 -73q43 -68 43 -117q0 -13 -3 -25q-15 -50 -15 -311q1 -24 1 -51q2 -307 4 -443v-35q0 -111 -17 -174q-14 -49 -41 -49 q-14 0 -30 11q-50 34 -52 65q-1 14 -1 34q0 24 2 55q-122 -146 -278 -146q-43 0 -89 11q-210 53 -249 300q-9 57 -9 109zM233 310q31 -184 185 -190h21q139 0 207 71q74 76 77 151q2 43 2 156q0 85 -1 209q-16 -30 -30 -30q-10 1 -18 15q-22 36 -153 44q-8 1 -17 0 q-122 0 -210 -117q-72 -94 -71 -220q0 -43 8 -89z" />
<glyph unicode="e" horiz-adv-x="997" d="M87 418q0 188 137 328q130 132 286 132q40 0 81 -8q203 -43 272 -226q36 -97 36 -149q0 -46 -28 -56q-61 -24 -302 -42.5t-268 -27t-41.5 13t-27.5 81.5q-5 -37 -5 -70q0 -149 103 -231q76 -60 160 -60q55 -1 112 25q146 66 196.5 131.5t70.5 96.5t35 10q4 -5 4 -15 q0 -35 -37 -128q-49 -122 -201 -197q-75 -37 -161 -37q-88 0 -187 39q-197 77 -229 314q-6 39 -6 76zM246 521q28 -4 74 -4q70 1 181 9q185 14 217 20q22 5 23 42q0 16 -5 40q-16 76 -110 110q-42 15 -87 15q-55 0 -117 -23q-110 -42 -176 -209z" />
<glyph unicode="f" horiz-adv-x="921" d="M71 813q0 17 19 16q5 -1 15 -1q46 0 198 11q3 141 29.5 228.5t107 133.5t164.5 52q23 2 44 2q59 0 108 -12q66 -16 86 -88q9 -36 9 -57t-9 -26q-4 -2 -10 -2q-24 0 -80 32q-66 37 -133 37h-10q-72 -3 -109.5 -26.5t-58.5 -81t-26 -186.5q145 8 175 15q5 1 9 1 q26 0 51 -39q14 -21 14 -35q0 -15 -17 -23q-32 -13 -233 -32q1 -315 1.5 -464.5t3.5 -224.5v-11q0 -66 -33 -85q-11 -6 -22 -6q-25 0 -51 37q-26 38 -26 67q0 12 3 21q10 26 10 330q0 135 -2 325q-155 -15 -174.5 -18t-28.5 25.5t-20 66.5q-4 11 -4 18z" />
<glyph unicode="g" horiz-adv-x="955" d="M99 402q0 140 71 257q108 183 285 186h11q169 0 257 -73q-3 66 -18 85q-6 7 -6 14q0 9 11 16q20 11 53 18h6q31 0 65 -53t34 -86q0 -4 -1 -8q-7 -33 -15 -125q-4 -50 -4 -158v-216q0 -121 -9.5 -200.5t-51.5 -198.5q-59 -168 -204 -222q-94 -35 -183 -35q-49 0 -96 11 q-134 30 -149 72q-4 11 -4 17q0 14 15 14q8 0 20 -3q46 -15 150 -16q3 -1 7 -1q100 0 200 43q102 43 147 182q29 92 39 199q-116 -139 -285 -139q-27 0 -54 3q-207 25 -269 253q-22 86 -22 164zM215 406q0 -59 20 -123q51 -170 207 -170q155 0 218 111.5t70 175.5q2 27 2 86 q0 81 -5 224q-16 -81 -44 -81q-15 0 -33 25q-51 66 -168 66h-8q-124 -3 -207 -135q-52 -82 -52 -179z" />
<glyph unicode="h" horiz-adv-x="961" d="M72 1227q0 12 14 19q27 15 52 22q2 1 5 1q25 0 82 -60q53 -58 53 -114q0 -9 -1 -17q-9 -64 -16 -353q99 119 327 135q19 1 38 1q194 0 225 -165q27 -144 27 -305q0 -41 -2 -82q-8 -206 -41 -292q-18 -44 -40 -44q-21 0 -47 38q-41 62 -41 101q0 12 4 21q16 41 38 185 q9 60 9 121q0 85 -18 171q-27 129 -155 129q-19 0 -39 -3q-162 -21 -220 -100q-58 -80 -59 -148v-57q0 -69 1 -183v-27q0 -150 -21 -209q-13 -36 -39 -36q-20 0 -46 19q-49 36 -49 83q0 14 4 28q19 65 25 520q2 123 1 216q-1 250 -13 284q-18 46 -44 76q-14 14 -14 25z" />
<glyph unicode="i" horiz-adv-x="396" d="M99 1225q0 14 38 21q34 6 56 6q14 0 23 -2q27 -6 77 -73q33 -47 33 -89q0 -20 -8 -38q-17 -42 -33 -42q-7 0 -13 6q-22 22 -84.5 100.5t-82.5 100.5q-6 6 -6 10zM104 839q0 8 19 20q25 15 51 19h2q25 0 64 -66q36 -60 36 -110q0 -6 -1 -14q-3 -28 -3 -111t3 -219 q1 -44 1 -84q0 -202 -26 -260q-18 -39 -40 -39q-15 0 -34 24q-32 41 -32 89q0 16 4 32q10 49 10 190q0 50 -1 112q1 48 1 89q0 203 -20 253q-24 60 -32 70q-2 2 -2 5z" />
<glyph unicode="j" horiz-adv-x="643" d="M-61 -172q0 30 42 75q24 25 38 25q15 0 18 -30q6 -57 57 -110q46 -49 138 -49q10 0 20 1q106 5 149 68.5t47 158.5q1 33 1 91q0 108 -5 302q-6 297 -30.5 350t-46 78t-3.5 39t48 27q5 3 12 3q30 0 84 -51q67 -62 68 -137v-44q0 -92 -2 -302q-4 -241 -4 -357q0 -2 1 -28 q0 -113 -82 -213q-80 -98 -232 -98h-11q-161 4 -229 80.5t-77 109.5q-1 6 -1 11zM360 1212q-5 7 -5 12q0 14 39 21q34 6 58 6q13 0 24 -2q26 -6 77 -76q34 -48 34 -91q0 -20 -7 -39q-17 -44 -35 -44q-6 0 -13 7q-23 22 -87 103t-85 103z" />
<glyph unicode="k" horiz-adv-x="864" d="M86 1227q0 7 12 13q21 10 58 20q6 2 12 2q33 0 78 -44q48 -50 48 -80l-19 -703q174 99 241 197t74 135.5t-15.5 57.5t6.5 27t61 10h3q32 0 86 -62q24 -27 24 -59q0 -43 -46 -93q-79 -86 -306 -217q331 -202 366 -218q31 -15 31 -96v-13q-3 -86 -29 -86q-3 0 -5 1 q-32 9 -100 88.5t-344 282.5q-20 -8 -46 -11q-1 -156 -3.5 -255t-40.5 -125q-13 -9 -28 -9q-28 0 -62 35q-30 32 -30 65q0 22 13 45q32 55 32 502v27q-1 472 -23.5 504t-40.5 47q-7 6 -7 12z" />
<glyph unicode="l" horiz-adv-x="372" d="M99 1231q0 9 10 11q21 5 50 18q5 1 10 1q25 0 60 -53q36 -56 36 -89q0 -4 -1 -8q-6 -35 -6 -501q0 -36 -1 -70q0 -402 6 -457v-16q0 -50 -29 -81q-11 -11 -22 -11q-23 0 -47 51q-28 59 -28 100q1 12 3 22q8 37 8 331v154q-2 439 -4.5 485.5t-29.5 82.5q-15 19 -15 30z " />
<glyph unicode="m" horiz-adv-x="1468" d="M86 801q0 6 7 11q17 11 50 30q12 5 25 5q24 0 52 -20q45 -33 52.5 -55t2.5 -61q139 137 287 137q22 0 45 -3q171 -24 185 -127q125 140 269 140h23q158 -12 203 -86t58 -166q10 -72 10 -216q0 -41 -1 -87q-4 -211 -45 -283q-23 -38 -45 -38q-18 0 -37 28q-28 43 -28 91 q1 19 5 39q16 70 19 303v21q-1 214 -61 260q-38 28 -88 28q-34 0 -74 -13q-98 -32 -141 -95.5t-47 -101.5q-2 -19 -2 -79.5t2 -162.5v-37q0 -175 -36 -236q-24 -39 -49 -39q-21 0 -42 22q-35 36 -35 77q0 18 7 37q22 62 28 306q1 21 1 41q0 207 -58 251q-35 26 -80 27 q-37 -1 -82 -19q-98 -40 -140 -96t-50 -93q-4 -17 -4 -75q0 -66 5 -180q2 -37 2 -69q0 -159 -37 -212q-23 -32 -44 -32q-23 0 -44 35q-33 51 -33 95q1 15 5 29q16 56 16 309v39q0 217 -10 251q-12 37 -33 54q-13 8 -13 16z" />
<glyph unicode="n" horiz-adv-x="939" d="M74 812q0 6 7 10q17 12 52 30q13 7 27 7q24 0 52 -21q43 -33 50.5 -55.5t2.5 -62.5q151 139 306 139q23 0 47 -2q178 -25 202 -173t26 -374v-20q0 -211 -40 -277q-24 -40 -52 -40q-20 0 -42 23q-37 37 -37 81q-1 21 7 41q24 69 25 320q0 246 -67 294q-36 27 -83 26 q-39 0 -87 -18q-102 -42 -148 -98t-56 -94q-5 -18 -4 -81q0 -65 5 -179q2 -41 2 -76q0 -157 -36 -211q-21 -32 -42 -32q-24 0 -47 36q-34 52 -34 95q0 16 4 31q16 56 18 314v41q0 220 -10 254q-11 38 -34 55q-14 9 -14 17z" />
<glyph unicode="o" horiz-adv-x="939" d="M73 423q0 100 39 195q68 161 221 224q76 31 153 31q78 0 158 -32q156 -63 207 -225q23 -75 23 -157q0 -96 -32 -202q-59 -196 -232 -257q-74 -25 -144 -25q-93 0 -178 47q-148 82 -195 258q-20 73 -20 143zM216 306q36 -140 141 -192q53 -26 106 -26t106 26 q107 52 145 192q20 72 20 140q0 65 -18 126q-37 125 -135 165q-49 21 -99 21q-49 0 -98 -20q-100 -40 -152 -167q-31 -75 -31 -154q0 -54 15 -111z" />
<glyph unicode="p" horiz-adv-x="973" d="M54 812q0 9 11 16q21 11 64 22q7 1 13 1q37 0 77 -48q47 -58 47 -107q79 112 217 145q34 7 69 7q105 0 213 -74q124 -86 124 -315q0 -35 -3 -74q-22 -290 -244 -394q-112 -52 -207 -52t-175 51q-2 -49 -2 -97q0 -62 4 -123v-24q0 -87 -42 -120q-14 -11 -27 -11 q-32 0 -58 64q-28 64 -28 114q0 20 5 37q15 62 17 450v62q0 331 -21 374q-22 47 -43 73q-11 13 -11 23zM260 118q81 -45 170 -45q60 0 122 20q157 51 180 283q4 40 4 77q0 168 -88 231q-49 36 -102 36q-61 0 -126 -48q-122 -90 -139.5 -147.5t-20.5 -406.5z" />
<glyph unicode="q" horiz-adv-x="990" d="M61 333v4q2 285 165 413q137 106 263 106q24 0 47 -4q148 -24 218 -91q-5 74 -27 100t0.5 39t49.5 20h5q26 0 73 -53q42 -48 42 -98q0 -10 -2 -21q-11 -61 -23 -384q-7 -184 -7 -318q0 -100 4 -172q2 -30 2 -57q0 -123 -34 -180q-19 -30 -36 -30q-23 0 -43 51 q-29 68 -29 114q0 15 3 28q13 51 13 297q-177 -173 -338 -173q-66 0 -129 29q-217 99 -217 380zM175 344q0 -193 137 -250q52 -21 103 -21q86 0 173 59q137 95 159 171q14 48 14 171q0 73 -5 173q-15 -33 -34 -33q-17 0 -36 24q-43 54 -164 70q-18 2 -35 2q-102 0 -198 -77 q-114 -92 -114 -289z" />
<glyph unicode="r" horiz-adv-x="761" d="M53 834q0 4 3 9q8 13 43 32q12 6 26 6q24 0 52 -21q43 -34 50 -56q3 -10 3 -28q0 -24 -5 -63q127 147 301 147q15 0 31 -1q146 -11 146 -74q0 -20 -15 -45q-41 -71 -70 -71q-14 0 -24 16q-32 48 -125 48q-3 -1 -6 -1q-99 -2 -163.5 -77t-73.5 -140q-4 -31 -4 -90 q0 -65 5 -165q2 -36 2 -68q0 -135 -35 -189q-21 -32 -43 -32q-23 0 -45 36q-34 50 -34 95q0 16 4 30q16 56 18 310v66q0 197 -8 247q-10 58 -24 67q-9 4 -9 12z" />
<glyph unicode="s" horiz-adv-x="874" d="M46 118q0 19 11 43q12 24 27 24q13 -1 28 -21q30 -42 160 -64q41 -7 82 -6q86 0 172 31q132 49 132 147q0 92 -264 134q-269 43 -269 207q1 167 131 211q128 44 268 44t153 -4t36 6q7 2 15 2q12 0 22 -9q15 -16 44 -74q11 -24 11 -42q0 -24 -23 -35q-13 -7 -29 -7 q-30 -1 -71 23q-48 27 -168 28q-35 0 -77 -2q-183 -10 -195 -118v-8q0 -99 260 -134q272 -36 288 -211q1 -13 1 -25q0 -156 -188 -234q-123 -52 -231 -52q-69 0 -131 22q-158 54 -183 87q-12 16 -12 37z" />
<glyph unicode="t" horiz-adv-x="850" d="M95 765q2 38 34 32q37 -7 75 -7q1 0 2 1q39 0 121 12q13 178 13 264q0 28 -1 46q-6 72 -26 88.5t-7.5 27t45.5 22.5q5 2 11 2q31 0 76 -51q44 -48 43 -91q0 -10 -2 -20q-13 -51 -26 -269q111 21 137 35q8 4 16 4q18 1 42 -23q32 -33 33 -58q0 -25 -234 -76 q-19 -368 -23 -454q0 -9 -1 -18q-1 -72 25 -108q17 -25 54 -26q24 0 55 11q80 27 137 74q31 25 45 25q12 0 12 -18v-2q-1 -39 -63 -110q-60 -70 -190 -99q-30 -7 -55 -7q-84 0 -116 76q-22 56 -22 131q1 13 1 27q4 92 16 474q-132 -25 -166 -25h-2q-32 1 -43 21.5t-15 74.5 q-1 7 -1 14z" />
<glyph unicode="u" horiz-adv-x="856" d="M55 817q0 10 17 16q26 9 58 15q3 1 6 0q30 0 74 -48q40 -44 39 -89q1 -9 -1 -19q-10 -54 -18 -219q-2 -53 -1 -101q1 -99 9 -173q14 -111 123 -117q10 -1 19 0q97 0 163 62q72 68 86 110q10 29 10 145q1 45 -1 104q-6 208 -11.5 246t-28.5 59t0.5 34t51.5 23q4 1 9 1 q26 0 63 -40q42 -44 43 -96q0 -4 -1 -8q-2 -42 -2 -160v-88q1 -192 7 -277q1 -25 1 -49q0 -63 -9 -128q-10 -62 -39 -62q-13 0 -32 13q-55 42 -55 64l2 60q-123 -116 -258 -116q-25 0 -51 3q-162 26 -198 154q-31 111 -31 294q1 28 1 58q2 63 1 111q0 123 -10 149 q-14 36 -30 56q-6 8 -6 13z" />
<glyph unicode="v" horiz-adv-x="951" d="M79 807q0 3 1 7q7 14 45 28q12 4 25 4q26 0 54 -20q40 -28 59.5 -46t96 -222.5t110.5 -333.5q78 205 183 406.5t134 231.5q10 10 21 10q22 0 47 -36q22 -31 22 -54q0 -20 -14 -36q-33 -35 -100 -161t-153.5 -326.5t-93.5 -258.5q-5 -36 -32 -36q-18 0 -45 16 q-57 30 -57 56q0 8 4 14q3 5 3 14q-1 60 -91 316q-106 300 -140 341t-59 60q-20 14 -20 26z" />
<glyph unicode="w" horiz-adv-x="1293" d="M75 792q0 5 7 10q14 8 54 22q13 4 25 5q25 0 45 -21q29 -30 45 -52t24 -61.5t146 -460.5q170 404 170 481q1 9 -1 13q-18 50 -37.5 63.5t-0.5 24.5q18 12 52 22q10 3 19 3q23 0 45 -19q30 -26 50.5 -58t161.5 -533q199 507 215 555t49 77q9 7 17 7q23 0 43 -59 q13 -40 13 -64q0 -27 -14 -37q-28 -20 -118 -241.5t-115.5 -292t-25.5 -106.5t-1 -69q-1 -18 -24 -18q-18 0 -50 12q-65 25 -65 67q0 6 2 12q1 3 0 7q0 69 -145 483q-190 -466 -190 -500q0 -29 3 -66q0 -18 -19 -18q-16 0 -48 13q-61 25 -61 61q0 4 1 8t1 9q0 55 -79 281 q-86 248 -124 329t-58 96q-12 8 -12 15z" />
<glyph unicode="x" horiz-adv-x="906" d="M94 33q0 53 38 68q42 17 109.5 81t192.5 221q-144 165 -219.5 250t-96.5 94t-14 21t30 22t55.5 1t52 -19t263.5 -277q139 185 147 250q3 29 3 50q1 27 -5 41q-10 26 8 27h52q34 -1 57 -67q17 -49 17 -79q0 -12 -2 -21q-8 -34 -74 -116.5t-123 -150.5q248 -234 255 -280 q3 -21 3 -46q0 -28 -4 -58q-7 -53 -35 -53h-6q-33 6 -75.5 72t-213.5 263q-181 -233 -294 -306q-58 -38 -89 -38q-28 0 -31 33q-1 9 -1 17z" />
<glyph unicode="y" horiz-adv-x="969" d="M76 790q-3 2 -3 6q0 6 15 16q22 14 51 27q6 3 13 3q25 0 58 -39q41 -49 44 -78q1 -8 1 -17q0 -28 -7 -74q-9 -54 -9 -188q0 -20 1 -42q1 -168 48 -234q45 -65 153 -65q3 0 5 1q112 1 192.5 147.5t83.5 216.5t6 171v28q0 79 -14 117q-18 44 -29 50.5t25.5 22.5t49.5 21h3 q15 0 65 -52q45 -47 45 -80q0 -7 -2 -13q-11 -36 -14.5 -155t-7 -336t-62.5 -384.5t-205 -221.5q-93 -35 -182 -35q-49 0 -96 11q-134 30 -149.5 72t31 27.5t150.5 -15.5q3 -1 7 -1q100 0 199 43q103 43 147.5 182t44.5 315q-91 -241 -284 -244h-9q-185 0 -247 109 q-64 112 -64 297.5t8 247.5q2 13 2 26q0 44 -23 73q-29 37 -41 44z" />
<glyph unicode="z" horiz-adv-x="955" d="M92 116q0 28 16 35q32 12 76.5 36.5t421.5 522.5q-335 -32 -387 -48.5t-68.5 -16.5t-24.5 36.5t-14 81.5t28 37q11 -2 43 -2q69 0 237 11q246 16 290 45q9 7 19 7q35 0 70 -87q18 -45 18 -74q0 -42 -38 -50q-64 -14 -182 -160t-263 -318q368 18 407 39q11 6 23 6 q32 0 73 -40q44 -42 44 -79q0 -10 -3 -20q-13 -37 -35 -37q-5 -1 -9 1q-28 10 -140 19q-30 2 -64 2q-95 0 -227 -18q-179 -25 -223 -59q-13 -9 -24 -9q-30 0 -50 69q-14 44 -14 70z" />
<glyph unicode="{" horiz-adv-x="698" d="M142 597v37q30 11 57.5 23t55 35t42.5 54t17.5 75t-4.5 104q-6 41 -17 102t-13.5 94t2.5 70q5 40 21 77.5t47 71.5t71 58t76 30l71 14v-25q-55 -13 -80.5 -24.5t-53 -34.5t-42.5 -51t-20 -74t4 -117q1 -17 12 -93t10 -118q-2 -33 -11 -70t-29.5 -74t-47 -62.5 t-59.5 -42.5l-74 -41q70 -29 104 -52t54.5 -51.5t34 -62t18 -64.5t5 -72t-1.5 -74q-2 -18 -8 -86l-7 -71q-8 -69 -4 -96q3 -33 16.5 -61t32 -45.5t40 -31.5t32.5 -25.5t7.5 -19.5t-19.5 -8q-16 -1 -53 20.5t-49 30.5t-35.5 36.5t-36 49.5t-20.5 54.5t-7 79.5q0 48 10 117 l21 137q7 50 7 84q-1 59 -21.5 95.5t-35.5 42.5z" />
<glyph unicode="|" horiz-adv-x="487" d="M209 -409v2047h75v-2047h-75z" />
<glyph unicode="}" horiz-adv-x="698" d="M143 1418v25q47 -9 82.5 -18t69 -28.5t65.5 -55t47.5 -72t20.5 -75.5t3 -77q-3 -27 -14 -88.5t-17.5 -112t-3.5 -91.5q2 -47 17 -78t46 -57t65 -37l45 -17v-37q-86 -28 -114.5 -51.5t-45 -54t-17 -76.5t7.5 -96l21 -137q9 -68 9.5 -116t-7.5 -81q-8 -31 -21 -53.5 t-35.5 -49t-41.5 -40.5l-52 -32q-28 -18 -44 -16.5t-19.5 9t11.5 23.5q6 6 28 20.5t40 32.5t32 46t17.5 57.5t-3.5 98.5q-1 6 -7.5 73.5t-8.5 94t-2.5 65t4.5 66.5q5 35 19 68.5t40 69t52 46.5l102 51q-50 25 -81.5 43.5t-55.5 42t-45.5 61.5t-29.5 72t-9.5 76.5t8.5 111.5 l14 93q9 70 3 120q-6 42 -21.5 71t-46.5 55.5t-47 30.5z" />
<glyph unicode="~" horiz-adv-x="914" d="M193 1108q-8 11 7.5 39.5t22.5 38.5q8 12 26.5 37.5t35 43.5t31 31t33 22t34.5 9q16 -1 36.5 -12t69 -41.5t81 -44t58.5 -11.5q34 2 64 25.5t52 47t29.5 30.5t12.5 7.5t11 -4.5t0 -25q-5 -14 -13.5 -30.5t-23 -37t-36 -47t-53.5 -55t-59 -31.5q-17 -2 -35.5 4t-76 41.5 t-81.5 49t-48 14.5q-23 0 -42.5 -9t-35 -21t-34.5 -29.5t-30.5 -33t-19.5 -17.5t-16 9z" />
<glyph unicode="&#xa4;" d="M302 1301q0 10 4 15q4 4 15 4q16 0 49 -10q53 -18 79 -37l72 -52l139 -143l98 57l114 33l146 15q152 -18 196.5 -35.5t117.5 -54.5l44 -23l174 162q55 47 103.5 64t62.5 1q4 -6 4 -14q0 -15 -15 -39l-57 -102l-166 -163q20 -33 23 -37l38 -71q35 -99 48 -162.5 t8.5 -146.5t-26.5 -160.5t-56 -123.5l-50 -71l189 -179q26 -47 41.5 -89.5t-4.5 -66.5q-7 -8 -18 -8q-21 0 -56 30l-95 63l-156 162q-45 -24 -82.5 -41t-103.5 -34t-160 -20t-155 14.5t-131 50.5l-55 26l-202 -195q-50 -30 -98 -45q-21 -6 -35 -6q-18 0 -23 10q-11 19 9 44 l52 83l185 204q-12 13 -63 75.5t-54 170.5l-14 173q18 146 42 206.5t51 97.5l28 39l-137 135q-46 41 -71 71t-40 78q-9 29 -9 45zM528 680q-12 -134 26 -240q39 -112 116.5 -177.5t176 -90.5t173.5 -22q80 2 153.5 27t131.5 66.5t101 120t55 186t-20 218.5 q-38 127 -106.5 190t-151.5 94.5t-153 36t-124 -4.5q-64 -11 -154.5 -50t-151 -129.5t-72.5 -224.5z" />
<glyph unicode="&#xa7;" d="M552 102q0 53 24 79t59.5 29t62 -25t25.5 -59q-1 -17 -14.5 -44t-17 -46t18.5 -53q25 -44 86 -77.5t187 -33.5q80 -1 159 18.5t121.5 71t41.5 116.5q-2 49 -30 90.5t-127.5 90.5t-239 109t-200.5 92t-98 81.5t-29 119.5q6 56 59.5 120.5t123.5 87.5l84 30 q-47 19 -97 43.5t-92.5 83t-29.5 149.5q8 58 42.5 103t80.5 70t102.5 42t149.5 20q117 3 218.5 -24t165.5 -89t63.5 -125.5t-29 -91t-64.5 -26.5q-33 0 -53 18.5t-26 50.5t11 53l24 27q7 16 -7 45q-13 24 -43 49.5t-105 43t-139 17.5q-105 -1 -182.5 -47.5t-88 -115 t28.5 -117.5q26 -35 159 -92t227.5 -96t149 -63.5t110.5 -83t55 -128.5q-2 -49 -35 -94.5t-100.5 -84t-112.5 -49.5l-55 -15q49 -22 109 -51.5t111.5 -95.5t41.5 -152q-11 -85 -90 -152t-182 -92t-208 -21q-136 4 -228 51t-135 114t-43 129zM704.5 672q-1.5 -48 38.5 -92 q31 -36 145 -80l148 -64l93 -37q32 11 61.5 23t66 35t63 63t23 83t-35.5 79t-154 90t-126 56l-111 44q-52 -16 -86 -33t-79 -68t-46.5 -99z" />
<glyph unicode="&#xa8;" d="M551 1235.5q0 52.5 35 81.5t78 28q46 -2 80.5 -34.5t35 -79.5t-31.5 -81t-86.5 -34.5t-82.5 33.5t-28 86.5zM1273.5 1239q-0.5 52 35 81t79.5 28q45 -2 80 -35t35.5 -79.5t-32.5 -80.5t-86 -34.5t-82 34t-29.5 86.5z" />
<glyph unicode="&#xad;" horiz-adv-x="1444" d="M99 567v86h1228v-86h-1228z" />
<glyph unicode="&#xb0;" d="M205 1234q0 54 28.5 105t78 77.5t102.5 26.5q51 -1 101 -27.5t78.5 -76.5t29 -106t-27.5 -104q-29 -49 -77.5 -77t-103.5 -28q-57 -1 -105 27t-76 77.5t-28 105.5zM274.5 1233q-0.5 -37 19.5 -69q18 -33 50 -51.5t70 -17.5q37 0 69 18t50.5 50t18.5 71q-1 37 -19 69.5 t-52.5 50t-66.5 18.5q-33 0 -67 -18t-53 -51t-19.5 -70z" />
<glyph unicode="&#xb1;" d="M407 0v82h1228v-82h-1228zM407 656l2 86h574v486l86 -1v-485h572l1 -86h-573l1 -486l-87 1v487z" />
<glyph unicode="&#xb7;" d="M913 624.5q0 47.5 30.5 75.5t74.5 28q46 -1 75.5 -30.5t29.5 -74.5q-1 -44 -30.5 -74t-73.5 -30.5t-75 29t-31 77z" />
<glyph unicode="&#xd7;" d="M559 209l403 404l-403 403l61 60l403 -403l404 404l61 -60l-405 -404l406 -405l-61 -61l-405 405l-404 -404z" />
<glyph unicode="&#xe0;" d="M562 471q7 112 41 209t101.5 168t159 104.5t170.5 27.5q73 -6 124.5 -35.5t83.5 -58.5l43 -39l34 60q9 16 28 45t29.5 28.5t20.5 -16.5q5 -10 5 -35l1 -50l1 -709q0 -49 3.5 -67.5t13.5 -30.5t26.5 -19t40.5 -6q39 0 59.5 16.5t36 42t23 41.5t16.5 26t16.5 7.5t12 -27 t-10.5 -71.5q-17 -53 -36.5 -82.5t-60.5 -50t-80 -24.5q-62 -8 -100.5 14t-59 56.5t-20.5 59.5l-6 80q-12 -17 -39 -53.5t-72 -71.5t-94.5 -56.5t-108.5 -24.5q-117 -7 -198.5 47t-121.5 116t-65 152.5t-17 226.5zM697 453.5q-2 -132.5 25 -231.5q19 -74 54 -121t93 -74 t123 -22q57 4 114 37t92.5 74.5t59.5 87.5l22 41l-1 434q-1 45 -14 79.5t-51 73t-81 62t-127 24.5t-167 -73q-62 -55 -101 -157t-41 -234.5zM851 1393h233l140 -286q11 -24 4 -32t-18 -6q-10 1 -24 14l-15 14z" />
<glyph unicode="&#xe1;" d="M564 471q7 111 41.5 207t101.5 165.5t162.5 105.5t171.5 29q95 -10 152 -57l93 -71l35 57l35 60q12 14 23 13.5t20 -17.5q5 -11 5 -35l1 -49l1 -726q0 -40 8 -64t25.5 -34.5t47.5 -7.5q37 3 61.5 20t36.5 37.5t21 44.5t16 29t17.5 2t13 -29t-10.5 -65q-17 -51 -37.5 -84 t-59 -53.5t-79.5 -23.5q-61 -6 -102.5 15.5t-59 53t-18.5 60.5l-6 81q-12 -17 -39.5 -54t-72 -71t-94.5 -56.5t-108 -25.5q-115 -7 -197.5 47.5t-122.5 116.5t-65 152.5t-17 226.5zM698.5 453.5q-1.5 -132.5 25.5 -231.5q19 -75 54 -122t93 -73.5t123 -21.5q58 5 114.5 38 t92.5 74.5t59 85.5l22 41l-1 435q-1 45 -13.5 78.5t-51.5 73.5t-81.5 63t-126 23.5t-167.5 -73.5q-62 -55 -101.5 -156.5t-41 -234zM881 1104l309 295l15 15q14 13 24.5 13.5t18 -8t-3.5 -30.5l-141 -285h-222z" />
<glyph unicode="&#xe8;" d="M584 538q19 149 86 243t146.5 139.5t189.5 51.5q87 4 155.5 -24t128 -97.5t88 -151.5t32.5 -150l3 -44h-683q-4 -56 -3.5 -129.5t35.5 -151t90.5 -124t129.5 -60.5q85 -18 159 8.5t112.5 58.5t71.5 73l30 37q18 23 37 14.5t1 -39.5l-22 -38q-20 -34 -61.5 -84.5 t-111 -91.5t-159.5 -47q-99 -7 -189 34.5t-157.5 126t-95.5 206t-13 240.5zM735 557h528q-3 53 -8 102.5t-29.5 105t-86 98.5t-133.5 40q-68 -4 -122 -46.5t-92 -112.5t-48 -135zM866 1393h233l140 -286q11 -24 4 -31.5t-17 -6.5q-11 0 -25 14l-15 14z" />
<glyph unicode="&#xe9;" d="M584 538q19 149 86 243t146.5 139.5t189.5 51.5q87 4 155.5 -24t128 -97.5t88 -151.5t32.5 -150l3 -44h-683q-4 -56 -3.5 -129.5t35.5 -151t90.5 -124t129.5 -60.5q85 -18 159 8.5t112.5 58.5t71.5 73l30 37q18 23 37 14.5t1 -39.5l-22 -38q-20 -34 -61.5 -84.5 t-111 -91.5t-159.5 -47q-99 -7 -189 34.5t-157.5 126t-95.5 206t-13 240.5zM735 557h528q-3 53 -8 102.5t-29.5 105t-86 98.5t-133.5 40q-68 -4 -122 -46.5t-92 -112.5t-48 -135zM880 1104l310 295l14 15q13 13 24 13.5t18.5 -8t-3.5 -30.5l-141 -285h-222z" />
<glyph unicode="&#xea;" d="M593 545q19 149 86 243t146.5 139.5t189.5 51.5q87 4 155.5 -24t128 -97.5t88 -151.5t32.5 -150l3 -44h-683q-4 -56 -3.5 -130t35.5 -150.5t91 -123.5t129 -61q85 -18 159 8.5t112.5 58.5t71.5 73l30 37q18 23 37 14.5t1 -39.5l-22 -38q-20 -34 -61.5 -84.5t-111 -91.5 t-159.5 -47q-99 -7 -189 34.5t-157.5 126t-95.5 206t-13 240.5zM727 1085q-14 6 0 29l15 14l214 264h157l189 -257q14 -20 9.5 -32t-14.5 -14t-45 25l-211 158l-264 -175q-8 -5 -22 -11.5t-28 -0.5zM744 564h528q-3 53 -8 102.5t-29.5 105t-86 98.5t-133.5 40 q-68 -4 -122 -46.5t-92.5 -113t-47.5 -133.5z" />
<glyph unicode="&#xec;" d="M758.5 -37q1.5 30 36.5 30h41q61 0 82.5 13t32 33.5t10.5 60.5v633q0 29 -14.5 49.5t-36 30t-68.5 11.5l-35 1q-27 0 -29 25t25 27l39 2q34 1 65.5 8t68 22t59.5 31l50 33v-879q0 -44 8 -60.5t27 -28.5t81 -12h81q38 0 37.5 -29t-32.5 -29l-494 -1q-36 -1 -34.5 29z M816 1393h232l141 -286q11 -24 3.5 -31.5t-17.5 -6.5q-12 0 -25 14l-14 14z" />
<glyph unicode="&#xed;" d="M756.5 -37q1.5 30 36.5 30h41q61 0 82.5 13t32 33.5t10.5 60.5v633q0 29 -14.5 49.5t-36 30t-68.5 11.5l-35 1q-27 0 -29 25t25 27l39 2q34 1 65.5 8t68 22t59.5 31l50 33v-879q0 -44 8 -60.5t27 -28.5t81 -12h81q38 0 37.5 -29t-32.5 -29l-494 -1q-36 -1 -34.5 29z M859 1104l310 295l14 15q13 13 24 13.5t18.5 -8t-3.5 -30.5l-140 -285h-223z" />
<glyph unicode="&#xf2;" d="M564 452q-2 110 23 207.5t91.5 174.5t150 113t177.5 38q95 1 188 -36t153 -114.5t90 -163.5t30 -219q-1 -82 -18 -168.5t-75 -172t-150.5 -136t-217.5 -47.5q-101 1 -185 41.5t-143.5 118t-85.5 170t-28 194.5zM710 452q2 -143 35.5 -248t103 -157.5t161.5 -56.5t164 47 q83 60 114.5 176t32 246t-29.5 228q-39 123 -114.5 180.5t-170.5 57.5q-94 -1 -168 -59t-102.5 -169t-25.5 -245zM837 1393h233l141 -286q11 -24 3.5 -31.5t-17.5 -6.5q-12 0 -25 14l-14 14z" />
<glyph unicode="&#xf3;" d="M562 452q-2 110 23 207.5t91.5 174.5t150 113t177.5 38q95 1 188 -36t153 -114.5t90 -163.5t30 -219q-1 -82 -18 -168.5t-75 -172t-150.5 -136t-217.5 -47.5q-101 1 -185 41.5t-143.5 118t-85.5 170t-28 194.5zM708 452q2 -143 35.5 -248t103 -157.5t161.5 -56.5t164 47 q83 60 114.5 176t32 246t-29.5 228q-39 123 -114.5 180.5t-170.5 57.5q-94 -1 -168 -59t-102.5 -169t-25.5 -245zM867 1104l310 295l14 15q13 13 24 13.5t18.5 -8t-3.5 -30.5l-141 -285h-222z" />
<glyph unicode="&#xf7;" d="M410 570v82h1228v-82h-1228zM903 131q-3 45 26.5 82.5t83.5 39t88 -32.5t31 -89q-3 -47 -35 -78.5t-80 -32t-80 31.5t-34 79zM903 1080q-3 45 26.5 82t83.5 38.5t88 -32.5t31 -88q-3 -47 -35 -79t-80 -32.5t-80 31.5t-34 80z" />
<glyph unicode="&#xf9;" d="M470.5 874q1.5 26 27.5 29l30 3q43 4 81 9.5t91 37.5l47 27v-727q0 -52 17.5 -108.5t64.5 -93t125 -35.5q74 0 148.5 42t123.5 104.5t49 113.5v480q0 21 -11.5 43.5t-30 35.5t-49.5 13h-34q-33 0 -31 26t34 29l42 3q28 2 83 16t91 42l30 22v-865q0 -50 7.5 -67t22 -29 t42.5 -15l50 -6q36 -4 39.5 -30t-42.5 -26h-243v184q-31 -41 -63 -77t-99.5 -73.5t-172.5 -42.5q-108 -6 -188 36.5t-104 101.5t-24 156l-2 512q-1 27 -12 51t-27.5 38t-51.5 14h-33q-29 0 -27.5 26zM812 1393h233l141 -286q11 -24 3.5 -31.5t-17.5 -6.5q-12 0 -25 14 l-14 14z" />
<glyph unicode="&#xfa;" d="M471.5 867.5q1.5 26.5 27.5 28.5l30 2q23 1 74 10.5t98 37.5l47 27v-727q0 -52 17.5 -108t65 -93.5t124.5 -36.5q73 0 148 42.5t124 105t49 112.5v481q0 21 -11.5 43.5t-30 35.5t-49.5 13h-34q-33 0 -31 26.5t34 28.5l42 2q24 1 83 17.5t91 41.5l30 22v-865 q0 -50 7.5 -67t22 -29t42.5 -15l50 -5q36 -5 39 -31.5t-42 -26.5h-243v185q-31 -41 -63 -77t-99.5 -73.5t-172.5 -42.5q-108 -6 -188 36.5t-104 101.5t-24 156l-2 512q-1 27 -12 51t-27.5 38t-51.5 14h-33q-29 0 -27.5 26.5zM845 1104l310 295l14 15q13 13 24 13.5t18.5 -8 t-3.5 -30.5l-141 -285h-222z" />
<glyph unicode="&#xfc;" d="M469.5 864q1.5 27 27.5 29l30 2q23 1 74 10.5t98 37.5l47 27v-727q0 -53 17.5 -108.5t65 -93t124.5 -36.5q74 0 148.5 42t123.5 104.5t49 113.5v481q0 21 -11.5 44t-29.5 35t-50 12h-34q-33 0 -30.5 27t33.5 29l42 2q27 1 81 15.5t93 43.5l30 21v-865q0 -51 7.5 -67 t22 -28t42.5 -15l50 -5q36 -5 39 -31.5t-42 -26.5h-243v185q-31 -41 -63 -77t-99.5 -73.5t-172.5 -42.5q-108 -6 -188 36.5t-104 101.5t-24 156l-2 512q-1 26 -12 51t-27 38t-52 13h-33q-29 0 -27.5 27zM674 1195q0 41 25.5 67.5t67 28t71.5 -27.5t30.5 -73.5t-32 -70 t-73.5 -25t-65.5 31.5t-23.5 69zM1153 1195q0 41 25.5 68t67.5 27.5t71.5 -28t30 -73t-32 -70t-73.5 -25t-65.5 31.5t-23.5 69z" />
<glyph unicode="&#x2000;" horiz-adv-x="819" />
<glyph unicode="&#x2001;" horiz-adv-x="1638" />
<glyph unicode="&#x2002;" horiz-adv-x="819" />
<glyph unicode="&#x2003;" horiz-adv-x="1638" />
<glyph unicode="&#x2004;" horiz-adv-x="546" />
<glyph unicode="&#x2005;" horiz-adv-x="409" />
<glyph unicode="&#x2006;" horiz-adv-x="273" />
<glyph unicode="&#x2007;" horiz-adv-x="273" />
<glyph unicode="&#x2008;" horiz-adv-x="204" />
<glyph unicode="&#x2009;" horiz-adv-x="327" />
<glyph unicode="&#x200a;" horiz-adv-x="91" />
<glyph unicode="&#x2010;" horiz-adv-x="1444" d="M99 567v86h1228v-86h-1228z" />
<glyph unicode="&#x2011;" horiz-adv-x="1444" d="M99 567v86h1228v-86h-1228z" />
<glyph unicode="&#x2012;" horiz-adv-x="1444" d="M99 567v86h1228v-86h-1228z" />
<glyph unicode="&#x2013;" horiz-adv-x="1240" d="M99 567v86h1024v-86h-1024z" />
<glyph unicode="&#x2014;" d="M0 571v85h2048v-85h-2048z" />
<glyph unicode="&#x2018;" d="M1484 1295q0 16 7 28q23 38 80 57t122 59q51 30 69 30q4 0 6 -2q3 -2 3 -6q0 -14 -29 -46q-39 -44 -74.5 -97.5t-32.5 -76t22 -48t-1 -38.5t-53 -22q-3 -1 -7 -1q-31 0 -77 72q-35 56 -35 91z" />
<glyph unicode="&#x2019;" d="M290 1150q0 13 31 45q40 42 77 94.5t34.5 74.5t-23.5 46.5t0 37t56 22.5q5 1 8 1q34 0 84 -69q38 -54 38 -88q0 -16 -7 -26q-24 -38 -85 -57t-130 -58q-54 -31 -73 -31q-5 0 -7 2q-3 2 -3 6z" />
<glyph unicode="&#x201c;" d="M1352 1297q0 17 8 30q23 39 82 59t125 62q53 31 71 31q5 0 7 -1q12 -11 -27.5 -56t-76 -101t-33.5 -79.5t22.5 -50.5t-1 -40.5t-54.5 -23.5q-4 -1 -8 -1q-32 0 -79 76q-36 58 -36 95zM1590.5 1334q23.5 40 82.5 60t126 61q52 32 70 32q5 0 7 -2q3 -2 3 -6q0 -15 -30 -49 q-40 -45 -76.5 -101.5t-33.5 -80t22.5 -50.5t-1 -40.5t-54.5 -23.5h-7q-33 0 -79 75q-53 85 -29.5 125z" />
<glyph unicode="&#x201d;" d="M135 1134q0 15 30 49q40 45 76.5 101.5t33.5 80t-22.5 50.5t1 40.5t54.5 23.5h7q33 0 79 -75q53 -85 29.5 -125t-82.5 -60t-126 -61q-52 -32 -70 -32q-5 0 -7 2q-3 2 -3 6zM369 1135q-12 11 27.5 56t76 101t33.5 79.5t-22.5 50.5t1 40.5t54.5 23.5q4 1 8 1q32 0 79 -76 q36 -58 36 -95q0 -17 -8 -30q-23 -39 -82 -59t-125 -62q-53 -31 -71 -31q-5 0 -7 1z" />
<glyph unicode="&#x2026;" d="M255 626q0 43 30.5 73.5t73.5 30.5t73.5 -30.5t30.5 -73.5t-30.5 -73.5t-73.5 -30.5t-73.5 30.5t-30.5 73.5zM913 626q0 43 30 73.5t73 30.5t73.5 -30.5t30.5 -73.5t-30.5 -73.5t-73.5 -30.5t-73 30.5t-30 73.5zM1570 626q0 43 30.5 73.5t73.5 30.5t73.5 -30.5 t30.5 -73.5t-30.5 -73.5t-73.5 -30.5t-73.5 30.5t-30.5 73.5z" />
<glyph unicode="&#x202f;" horiz-adv-x="327" />
<glyph unicode="&#x205f;" horiz-adv-x="409" />
<glyph unicode="&#x25fc;" horiz-adv-x="865" d="M0 0v865h865v-865h-865z" />
</font>
</defs>
</svg>
